<?xml version="1.0" encoding="utf-8"?>
<!DOCTYPE svg PUBLIC "-//W3C//DTD SVG 1.0//EN" "http://www.w3.org/TR/2001/REC-SVG-20010904/DTD/svg10.dtd">
<svg version="1.0" xmlns="http://www.w3.org/2000/svg" width="624px" height="400px" viewBox="0 0 624 400" preserveAspectRatio="xMidYMid meet">
 <g fill="#ffffff">
  <path d="M173.5 336 c1.5 -0.7 0.9 -0.9 -2.6 -0.9 -6.3 -0.1 -7.3 -1.5 -6.4 -9.3 0.4 -3.5 1.3 -8.2 2 -10.5 1.5 -4.9 1.2 -5.5 -0.9 -1.5 -2.2 4.4 -4.4 16.5 -3.3 18.9 1.6 3.6 6.8 5.2 11.2 3.3z m103.5 0.2 c2 -0.6 1.4 -0.8 -3 -1.2 l-5.5 -0.5 0 -7 c0 -3.8 0.4 -8.8 0.8 -11 l0.7 -4 -1.4 3 c-0.8 1.7 -2 6 -2.7 9.7 -1 5.6 -1 7 0.2 8.4 2.5 3 6.4 4 10.9 2.6z m246.5 -0.2 c1.4 -0.6 0.2 -0.9 -4.2 -0.9 -5.3 -0.1 -6.3 -0.4 -6.8 -2.1 -0.3 -1.1 -1.3 -2 -2 -2 -2.4 0 -0.4 3.1 2.9 4.6 3.5 1.5 7.2 1.7 10.1 0.4z m-482.4 -6 l1.2 -6 6.3 0 c3.6 0 6.4 -0.4 6.4 -1 0 -0.5 -2.5 -1 -5.5 -1 l-5.6 0 0.3 -5.7 0.3 -5.8 7 -0.3 c10.5 -0.5 10.6 -2.2 0.2 -2.2 -8.2 0 -8.7 0.1 -9.2 2.3 -0.5 2.2 -4.5 24.8 -4.5 25.4 0 0.2 0.4 0.3 0.9 0.3 0.6 0 1.5 -2.7 2.2 -6z m36.5 2.8 c1 -3.3 1 -3.3 8.2 -3.6 l7.2 -0.3 0 3.6 c0 2.6 0.4 3.5 1.6 3.5 1.4 0 1.5 -0.7 1 -3.7 -0.3 -2.1 -0.6 -8.4 -0.6 -14 l0 -10.3 -4.9 0 c-3 0 -5.1 0.5 -5.4 1.3 -0.3 0.9 0.6 1.1 3.5 0.9 2.2 -0.3 4.4 0 5 0.6 0.6 0.6 0.7 4.1 0.3 9.1 l-0.8 8.1 -5.4 0 -5.5 0 0.4 -6 c0.2 -3.3 0.3 -5.8 0.2 -5.7 -0.9 0.9 -7 19.7 -6.4 19.7 0.4 0 1.1 -1.5 1.6 -3.2z m42.8 -1.5 c1.7 -11.8 1.4 -11.3 5.7 -11.3 2.2 0 3.9 -0.1 3.9 -0.2 0 -0.2 -0.9 -2.8 -1.9 -5.8 -1.3 -4 -2.3 -5.5 -3.6 -5.5 -1.6 0 -2.2 1.9 -4.2 12.5 -1.3 6.9 -2.5 13.1 -2.8 13.8 -0.2 0.6 0.2 1.2 0.9 1.2 0.9 0 1.6 -1.7 2 -4.7z m17.1 3.5 c0.5 -1.4 4.5 -24.4 4.5 -25.9 0 -0.5 -0.4 -0.9 -1 -0.9 -0.5 0 -1 1.4 -1 3.1 0 1.6 -0.5 5 -1.1 7.5 -1.1 4.1 -1.4 4.4 -4.5 4.4 -1.9 0 -3.4 -0.5 -3.4 -1.2 0 -0.6 -0.2 -0.9 -0.5 -0.6 -0.5 0.5 1 5.8 3.6 12.6 0.9 2.4 2.7 2.9 3.4 1z m75 -6.3 c0.3 -2.7 1.3 -6 2.1 -7.2 1.4 -2.2 1.3 -2.3 -1.5 -2.3 -2.7 0 -3 -0.4 -4.1 -5 -0.7 -2.8 -1.6 -5.3 -2.1 -5.6 -1.5 -0.9 -1.1 1.1 1.7 8.3 2.1 5.7 2.4 7.8 1.9 13.3 -0.7 7.5 0.9 6.3 2 -1.5z m95.5 2.3 c0 -1.6 0.9 -1.8 7 -1.8 l7 0 0 3.5 c0 2.8 0.4 3.5 2 3.5 1.9 0 2 -0.7 2 -14 l0 -14.1 -5.7 0.3 c-3.1 0.2 -5.8 0.8 -6 1.3 -0.2 0.6 1.5 0.9 4.2 0.7 l4.5 -0.4 0 9.1 0 9.1 -6.1 0 -6.2 0 0.5 -5 c0.3 -2.8 0.3 -4.9 0.1 -4.7 -0.2 0.2 -1.7 4.4 -3.3 9.3 -1.7 5.1 -2.3 8.1 -1.5 7 0.8 -1.1 1.5 -2.8 1.5 -3.8z m42.4 0 c0.4 -2.9 1.1 -5.7 1.5 -6.3 0.5 -0.5 1.1 -3.8 1.4 -7.2 0.7 -8.3 1 -8.7 7 -7.9 5.7 0.6 6.6 1.6 6.8 6.6 0 2.9 0.2 3.1 0.9 1.5 1.5 -3.6 1.1 -7.4 -0.9 -8.5 -1.1 -0.5 -4.9 -1 -8.5 -1 l-6.5 0 -0.6 4.8 c-0.4 2.6 -1.3 7.8 -2.1 11.5 -1.6 7.8 -1.8 11.7 -0.5 11.7 0.5 0 1.2 -2.4 1.5 -5.2z m15.6 2.6 c-0.6 -1.4 -1 -4.3 -1 -6.5 0 -3.4 -0.3 -3.9 -2.4 -3.9 l-2.4 0 2.2 6.5 c1.1 3.6 2.6 6.5 3.3 6.5 0.9 0 1 -0.7 0.3 -2.6z m56.8 0.9 c0.2 -0.9 -0.7 -1.3 -2.7 -1.3 l-3.1 0 0 -12.5 c0 -10.4 -0.2 -12.5 -1.5 -12.5 -1.3 0 -1.5 2.2 -1.5 14.1 l0 14 4.2 -0.3 c2.3 -0.2 4.3 -0.9 4.6 -1.5z m20 0 c0.2 -0.9 -0.9 -1.3 -3.9 -1.3 l-4.2 0 0.5 -12.5 c0.5 -11.5 0.4 -12.5 -1.2 -12.5 -1.2 0 -2.3 1.7 -3.7 5.5 l-2.1 5.5 2.9 0 2.9 0 0 8.6 0 8.5 4.2 -0.3 c2.3 -0.2 4.3 -0.9 4.6 -1.5z m27.7 -2.3 c0.7 -3 0.7 -3 7.6 -3 l6.9 0 0 3.5 c0 2.4 0.5 3.5 1.5 3.5 1.3 0 1.5 -2.2 1.5 -14.1 l0 -14 -5.2 0.3 c-2.8 0.2 -5.3 0.8 -5.5 1.3 -0.2 0.6 1.5 0.9 4.2 0.7 l4.5 -0.4 0 9.1 0 9.1 -6 0 -6 0 -0.1 -4.2 0 -4.3 -2.3 6 c-3.4 8.8 -4 10.9 -2.8 10.1 0.6 -0.3 1.3 -2 1.7 -3.6z m83.9 -2.3 l0.8 -5.7 7.5 0 7.5 0 -0.4 6 c-0.4 5.7 0.5 8 1.6 4.3 0.5 -1.8 4.6 -24.7 4.6 -25.8 0 -0.3 -0.4 -0.5 -0.9 -0.5 -0.9 0 -1.4 1.9 -2.6 9.8 l-0.7 4.2 -7.5 0 -7.6 0 0.6 -7 c0.3 -3.8 0.2 -7 -0.2 -7 -0.4 0 -1.7 5.5 -3 12.3 -1.2 6.7 -2.4 13 -2.6 14 -0.2 1.1 0.1 1.7 0.8 1.4 0.7 -0.2 1.6 -2.9 2.1 -6z m-106.6 -10.4 c2.1 -6.2 3.5 -11.3 3.1 -11.3 -0.7 0 -8 22 -7.8 23.7 0.1 1.1 0.4 0.3 4.7 -12.4z m81.8 7.9 c-0.3 -0.9 -1.6 -2.3 -2.8 -3.1 -2.2 -1.3 -2.3 -1.3 -0.5 0.6 0.9 1.1 1.7 3.3 1.7 4.9 0.1 2.5 0.2 2.6 1.1 1.1 0.6 -0.9 0.8 -2.5 0.5 -3.5z m-14.8 -14.4 c-0.3 -2.1 -0.4 -2 -1.7 0.5 -1.2 2.3 -1.2 2.9 0 4.3 1.3 1.6 1.4 1.6 1.7 -0.4 0.2 -1.2 0.2 -3.2 0 -4.4z m-330.9 2.3 c0.8 -1.5 0.5 -2.4 -1.5 -4.4 -2.9 -2.9 -5 -3.6 -8.4 -2.6 -2.4 0.7 -2.3 0.7 0.7 0.8 5.2 0.2 6.3 1 6.3 4.7 0 3.7 1.4 4.4 2.9 1.5z m103.6 -0.1 c1.2 -3.9 -5.5 -8.7 -9.7 -7.1 -2.1 0.9 -2.1 1 0.9 1 5.1 0.1 6.3 1 6.3 4.7 0 3.8 1.5 4.6 2.5 1.4z m244.3 -2.7 c-0.4 -2.5 -6.2 -5.2 -9.5 -4.4 -2.4 0.5 -2.2 0.6 1.7 1.1 3.7 0.4 4.6 0.9 4.8 2.8 0.2 1.2 1 2.2 1.8 2.2 0.9 0 1.4 -0.7 1.2 -1.7z m-208.6 -55.8 c1 -7.7 5.3 -16.4 9.6 -19.2 3.1 -2 4.4 -2.2 23.5 -2.2 11.1 0 26.6 -0.3 34.5 -0.7 8.2 -0.4 14.2 -0.3 14.2 0.2 0 0.5 2.2 0.7 4.9 0.6 4.3 -0.3 5.1 -0.1 7 2.3 l2.1 2.8 0 -3.5 c0 -2.3 -0.7 -4.1 -2.2 -5.5 -3.6 -3.1 -9.7 -6.3 -12.1 -6.3 -1.3 0 -3.3 -0.7 -4.6 -1.6 -1.4 -1 -2.6 -1.3 -3 -0.7 -0.3 0.6 -3.5 1.3 -7 1.7 -3.6 0.3 -6.7 1 -7 1.5 -0.4 0.5 -6.3 1.2 -13.4 1.6 -11 0.7 -12.7 0.6 -12.7 -0.7 0 -1.9 -4.8 -2.8 -14.7 -2.8 -7.3 0 -7.3 0 -7.3 2.8 0 2.2 -0.8 3.1 -4.6 5.2 -2.5 1.3 -6 4.1 -7.7 6.2 l-3 3.8 -12.9 0 -12.8 0 0 -3.6 c0 -2.9 0.7 -4.3 3.7 -7 3.5 -3.3 12.5 -7.4 16 -7.4 1.1 0 1.3 -0.3 0.7 -0.9 -1.2 -1.1 -52.1 -3.6 -56.8 -2.7 -5.1 1 -4.5 2.6 0.9 2.6 4.5 0 4.5 0 4.5 3.5 0 1.9 -0.4 3.5 -1 3.5 -0.5 0 -1 1.4 -1 3 l0 3 11.8 0 c12.8 0 18.4 1.6 19.1 5.5 0.2 1.1 0.9 2.4 1.7 2.8 1 0.6 1.4 3.2 1.4 9.8 l0 9 13.7 -0.3 13.8 -0.3 0.7 -6z m-67.4 -45.2 l9.4 -0.8 5.2 -12 5.1 -12 3.8 -0.3 c3.5 -0.3 3.7 -0.1 3.7 2.5 0 1.5 -0.9 5.7 -2 9.3 -1.1 3.6 -2 6.9 -2 7.3 0 0.4 1.9 -0.5 4.3 -2 4.8 -3.3 11.8 -6.7 16.2 -8.1 2.9 -0.8 3 -1.1 4 -9.3 l1 -8.4 3.8 -0.3 3.7 -0.3 0 7.3 0 7.4 7.8 -0.8 c4.2 -0.3 8.4 -0.7 9.2 -0.7 1.3 -0.1 1.4 -1.8 1.2 -10.6 l-0.4 -10.5 3.5 0 3.4 0 1.6 10.2 c0.9 5.5 2 10.4 2.4 10.8 0.4 0.4 4.1 1 8.2 1.3 l7.3 0.6 -0.6 -3.2 c-0.4 -1.8 -0.9 -5.8 -1.3 -8.9 l-0.5 -5.8 3.6 0 c2 0 3.6 0.1 3.6 0.3 0 0.1 1.5 4.7 3.4 10.1 l3.3 10 7.9 2.5 c8.3 2.7 18 7.7 20.3 10.5 1.3 1.5 4.1 2.2 4.1 1 0 -0.3 -7.1 -11 -15.7 -23.7 -8.7 -12.7 -16.6 -24.6 -17.6 -26.4 -0.9 -1.8 -1.9 -3.3 -2.1 -3.3 -0.6 0 1.7 7.4 2.5 8 1.7 1.4 4.9 9.3 4.9 12.5 0 3.3 -0.2 3.5 -3.4 3.5 -3 0 -3.7 -0.6 -6 -4.4 -1.4 -2.5 -2.6 -5.2 -2.6 -6 0 -0.9 -0.4 -1.6 -0.8 -1.6 -0.9 0 -6.2 -9.8 -6.2 -11.3 0 -0.4 -0.9 -1.7 -1.9 -2.8 -1 -1.1 -2.7 -4.1 -3.7 -6.7 -1 -2.6 -2.3 -5.3 -3 -5.9 -0.7 -0.7 -1.4 -1.8 -1.7 -2.5 -0.2 -0.7 -0.7 -1.1 -1 -0.8 -0.7 0.7 2.3 16.3 4.4 22.5 1.6 4.5 3.9 15.3 4.6 21.3 l0.5 5.2 -3.5 0 c-3.2 0 -3.6 -0.3 -4.2 -3.2 -0.3 -1.8 -1.5 -5.5 -2.5 -8.3 -1 -2.7 -3 -9 -4.4 -14 -1.5 -4.9 -3.1 -9.9 -3.6 -11 -0.4 -1.1 -1.4 -4 -2.2 -6.5 -0.8 -2.8 -2 -4.6 -3 -4.8 -1.5 -0.3 -1.8 0.5 -1.8 5.1 0 3 -0.3 10.2 -0.7 16 l-0.6 10.7 -3.2 0 -3.2 0 -0.8 -16 c-0.6 -14.5 -0.9 -16 -2.5 -16 -1.3 0 -2.2 1.3 -3.1 5 -0.7 2.8 -1.6 5 -2.1 5 -0.4 0 -0.8 1.1 -0.8 2.4 0 2.2 -1.2 6.8 -3 11.1 -0.4 1.1 -1.7 5.2 -2.8 9 -1.9 7 -1.9 7 -5.7 7.3 l-3.8 0.3 0.6 -6.3 c0.3 -3.5 1.2 -8.5 2 -11.3 2.7 -8.9 5.7 -22.9 5 -23.4 -0.3 -0.4 -0.8 0 -1.1 0.8 -0.2 0.7 -1.2 2.1 -2.2 3.1 -0.9 0.9 -2 3.4 -2.4 5.4 -0.4 2 -1.6 4.2 -2.6 4.9 -1.1 0.6 -2 1.9 -2 2.7 0 0.8 -3.2 7.4 -7 14.5 -6.7 12.7 -6.9 13 -10.4 13.3 -3.5 0.3 -3.6 0.2 -3.6 -3.2 0 -2.8 6.1 -17.8 9.7 -23.8 0.2 -0.5 0.2 -0.8 0 -0.8 -0.5 0 -31.6 46.2 -32.7 48.5 -0.3 0.6 -2 3.1 -3.7 5.7 -1.8 2.6 -3.3 4.9 -3.3 5.1 0 0.3 1.5 0.1 3.3 -0.4 1.7 -0.4 7.4 -1.2 12.5 -1.6z m90 -0.5 c0.9 -1.5 1.3 -3 0.9 -3.4 -0.3 -0.4 -5.5 -0.7 -11.4 -0.7 -10 0 -17.4 1.3 -29.3 5 -3.5 1.1 8 2 24.8 1.9 l13.3 -0.1 1.7 -2.7z m-7.1 -83.4 c2.9 -0.4 5 -1 4.8 -1.4 -1.7 -2.8 -45.5 -2.7 -45.5 0.1 0 1.5 30.6 2.5 40.7 1.3z m-22.1 -13.4 l9.4 0 0 -3.5 0 -3.5 5.8 0 5.7 -0.1 -3.5 -1.6 c-2.4 -1.1 -6.3 -1.7 -12.5 -1.7 -8 0 -9.7 0.3 -15.5 3.1 -3.6 1.6 -7.6 4.3 -9 5.8 l-2.5 2.8 6.4 -0.7 c3.5 -0.3 10.6 -0.6 15.7 -0.6z"/>
 </g>
 <g fill="#002556">
  <path d="M37.8 339.2 c-2.1 -0.2 -3.8 -0.4 -3.8 -0.5 0 -0.7 5.1 -29.5 5.5 -31.4 0.5 -2.2 0.9 -2.3 12.5 -2.3 11.9 0 12 0 12 2.3 0 4.4 -2 5.6 -9.5 5.9 -6.8 0.3 -7 0.4 -7.3 3.1 -0.3 2.7 -0.3 2.7 5.9 2.7 5.9 0 6.1 0.1 5.5 2.3 -0.3 1.2 -0.6 3 -0.6 4 0 1.4 -1 1.7 -6.4 1.7 l-6.3 0 -1.2 6 c-0.7 3.3 -1.5 6.1 -1.9 6.2 -0.4 0.2 -2.4 0.2 -4.4 0z"/>
  <path d="M162.3 338.8 c-4.1 -2 -4.8 -6 -2.9 -16.1 2.6 -13.7 4.8 -16.5 13.8 -18.2 7.7 -1.5 14.8 2.8 14.8 8.9 0 4.9 -2.2 7.3 -6.7 7.2 -3.7 -0.1 -3.8 -0.2 -3.5 -3.7 0.4 -3.9 -1.4 -5.5 -4.9 -4.4 -2.9 0.9 -6.4 15.2 -4.6 18.3 1.4 2.2 5.6 1.4 6.9 -1.3 0.9 -2.1 1.8 -2.5 5.6 -2.5 4.3 0 4.4 0.1 3.7 2.8 -1 4.3 -3.4 7.3 -7 8.8 -4 1.6 -12 1.7 -15.2 0.2z"/>
  <path d="M267 339.3 c-3.7 -1.4 -5 -3.6 -5 -8.7 0 -5.4 2.1 -15.6 4.1 -19.9 1.4 -3 9.1 -6.7 14.2 -6.7 4.2 0 9.9 3.7 11.1 7.2 1.5 4.2 -0.9 8.6 -5.1 9.4 -4.2 0.8 -4.8 0.2 -4.5 -4.1 0.3 -2.6 -0.1 -3.5 -1.8 -4 -4 -1.3 -6.5 1.7 -8 9.3 -1.5 8 -1 10.2 2.2 10.2 2.8 0 4.2 -0.9 5.1 -3.2 0.5 -1.4 1.8 -1.8 5.2 -1.8 4.4 0 4.5 0.1 3.9 2.8 -1 4.4 -3.3 7.3 -6.9 8.8 -3.4 1.4 -11.6 1.8 -14.5 0.7z"/>
  <path d="M510.4 338.6 c-3.4 -1.5 -4.4 -3.3 -4.4 -7.7 0 -2.8 0.2 -2.9 4.4 -2.9 3.6 0 4.6 0.4 5.1 2 0.5 1.5 1.5 2 4.5 2 7.1 0 5.5 -4.5 -2.5 -7 -6.1 -1.9 -8.5 -4.6 -8.5 -9.5 0 -5.8 3.1 -8.9 10.5 -10.6 4.8 -1.1 6.4 -1 9.8 0.2 4.9 1.6 7.3 5.3 6.3 9.2 -0.6 2.4 -1.1 2.7 -5.1 2.7 -3.9 0 -4.5 -0.3 -4.5 -2 0 -2.5 -2.1 -3.4 -5.5 -2.6 -4 1 -3.2 4.2 1.3 5.6 10.3 3.3 13 6.5 11.1 13.3 -1.6 5.8 -5 8.1 -12.7 8.4 -4.2 0.2 -7.9 -0.2 -9.8 -1.1z"/>
  <path d="M70.5 337.3 c0.4 -1 3.2 -8.5 6.1 -16.8 3 -8.2 5.9 -15.2 6.5 -15.6 0.9 -0.5 13.9 -0.1 14.5 0.5 0.1 0 0.5 7.6 0.8 16.9 l0.7 16.7 -5 0 -5 0 0.6 -3.6 0.6 -3.5 -4.4 0.3 c-3.9 0.3 -4.4 0.6 -5.3 3.6 -0.8 3.1 -1.1 3.2 -5.9 3.2 -4.3 0 -4.8 -0.2 -4.2 -1.7z m19.7 -16.8 c0 -2.5 0.1 -5 0.2 -5.7 0.1 -0.6 -0.5 -1.3 -1.1 -1.5 -1.4 -0.5 -2.8 2.5 -3.8 8.1 -0.7 3.4 -0.6 3.6 1.9 3.6 2.4 0 2.6 -0.4 2.8 -4.5z"/>
  <path d="M114.2 334.3 c0.5 -2.7 1.9 -10.2 3.2 -16.8 l2.2 -12 4.2 -0.6 c4.5 -0.6 5.5 0 6.7 4.1 0.3 1.4 1.4 4.5 2.3 7 l1.6 4.5 1.2 -4 c0.7 -2.2 1.3 -5.7 1.3 -7.7 l0.1 -3.8 4.5 0 c2.5 0 4.5 0.3 4.5 0.7 0 2.8 -5.3 32 -5.9 32.6 -0.5 0.5 -2.6 0.7 -4.7 0.5 -3.7 -0.3 -3.8 -0.3 -6.3 -7.8 -1.3 -4.1 -2.6 -7.7 -2.8 -7.9 -0.7 -1 -1.3 1 -2.4 8.2 l-1.1 7.7 -4.8 0 -4.7 0 0.9 -4.7z"/>
  <path d="M206.6 332.4 c1.1 -6.3 1.1 -6.9 -1.6 -14.2 -1.5 -4.3 -3 -9 -3.4 -10.5 -0.7 -2.8 -0.7 -2.8 4.1 -2.5 l4.8 0.3 1.4 5.3 c0.8 2.8 1.8 5.2 2.2 5.2 0.4 0 2.4 -2.5 4.4 -5.5 3.6 -5.3 3.9 -5.5 8.2 -5.5 3.3 0 4.2 0.3 3.7 1.3 -1.4 2.2 -7.7 11.1 -11 15.4 -2 2.8 -3.4 6 -3.8 9 -1.2 8.2 -1.3 8.3 -6 8.3 l-4.3 0 1.3 -6.6z"/>
  <path d="M300.3 337.3 c0.3 -1 3 -8.5 6 -16.8 l5.4 -15 8.7 -0.3 8.6 -0.3 0 17.1 0 17 -5 0 -5 0 0 -3.5 c0 -3.4 -0.1 -3.5 -3.8 -3.5 -3.4 0 -3.9 0.3 -4.7 3.3 -0.9 3 -1.3 3.2 -5.9 3.5 -4.3 0.3 -4.8 0.1 -4.3 -1.5z m19.7 -18.3 c0 -3.5 -0.4 -6 -1.1 -6 -1 0 -3.2 4.5 -4.3 9.3 -0.6 2.5 -0.4 2.7 2.4 2.7 l3 0 0 -6z"/>
  <path d="M343.4 337.3 c0.7 -2.3 5.6 -29.7 5.6 -31.5 0 -0.5 4.5 -0.8 10 -0.8 8.7 0 10.3 0.3 12 2 1.1 1.1 2 3.1 2 4.3 0 3.6 -2.7 11.9 -4.2 12.8 -1 0.6 -0.9 2.1 0.5 7.3 0.9 3.5 1.7 6.7 1.7 7 0 0.3 -2.2 0.6 -4.9 0.6 -4.7 0 -5 -0.1 -5.6 -3.1 -0.4 -1.8 -1.4 -4.7 -2.2 -6.6 -1.9 -4.7 -4 -2.9 -4.9 4.3 l-0.6 5.4 -5 0 c-4.2 0 -4.9 -0.2 -4.4 -1.7z m19.6 -19.2 c1.4 -2.7 0.4 -4.8 -2.6 -5.4 -2.8 -0.5 -2.9 -0.4 -3.9 4.1 -0.6 3.1 -0.5 3.2 2.4 3.2 2 0 3.4 -0.7 4.1 -1.9z"/>
  <path d="M410.4 337.5 c0.3 -0.9 0.6 -8.6 0.6 -17.1 l0 -15.4 4.8 0 4.7 0 -0.3 9.2 c-0.2 5.1 -0.2 10.9 0 12.8 0.3 3.5 0.3 3.5 2.1 -2 1 -3 3 -8.8 4.4 -12.7 l2.6 -7.3 4.9 0 5 0 -0.7 12.5 c-0.5 9 -0.4 12.5 0.4 12.5 0.6 0 1.1 -0.5 1.1 -1.1 0 -0.6 1.6 -6.2 3.6 -12.4 3.8 -12.1 4.1 -12.5 10.5 -11.7 l2.5 0.4 -5.6 16.6 -5.7 16.7 -7.1 0.3 -7.2 0.3 -0.1 -8.8 -0.1 -8.8 -2.7 8.5 -2.7 8.5 -7.8 0.3 c-6.9 0.3 -7.8 0.1 -7.2 -1.3z"/>
  <path d="M463 338.7 c0 -0.5 5.5 -16.4 8.8 -25.2 l3 -8 8.1 -0.3 8.1 -0.3 0 17.1 0 17 -4.5 0 c-4.5 0 -4.5 0 -4.5 -3.5 0 -3.4 -0.1 -3.5 -3.9 -3.5 -3.4 0 -3.9 0.3 -4.7 3.3 -0.9 3 -1.3 3.2 -5.7 3.5 -2.6 0.2 -4.7 0.1 -4.7 -0.1z m20 -19.7 c0 -3.5 -0.4 -6 -1.1 -6 -1 0 -3.3 4.6 -4.4 9.3 -0.7 2.5 -0.5 2.7 2.4 2.7 l3.1 0 0 -6z"/>
  <path d="M547.5 336.8 c0.3 -1.3 1.1 -5.9 1.9 -10.3 0.8 -4.4 2 -11 2.7 -14.7 l1.2 -6.8 4.5 0 c4.2 0 4.3 0.1 3.8 2.8 -0.3 1.5 -0.8 4.6 -1.1 7 l-0.7 4.2 4.5 0 4.5 0 0.7 -4.2 c1.5 -10.2 1.2 -9.8 6.1 -9.8 2.4 0 4.4 0.2 4.4 0.3 0 1.1 -5.2 30.5 -5.6 32 -0.4 1.3 -1.6 1.7 -5.1 1.7 -4.2 0 -4.5 -0.2 -4 -2.2 0.3 -1.3 0.9 -4 1.2 -6 l0.7 -3.8 -4.5 0 -4.5 0 -0.8 5.8 -0.9 5.7 -4.8 0.3 c-4.5 0.3 -4.7 0.2 -4.2 -2z"/>
  <path d="M221.8 273.1 c-9.7 -0.3 -17.9 -0.9 -18.3 -1.3 -0.3 -0.3 3.1 -0.9 7.7 -1.3 12.1 -1 118.7 -1.1 122.8 -0.2 2.9 0.7 4.1 0.5 6.9 -1.5 5.8 -3.9 7.6 -7.2 7.6 -13.9 0 -3.2 0.1 -5.9 0.2 -5.9 0.1 0 0.9 1.3 1.8 3 1.9 3.7 1.9 7.6 0 12.9 l-1.4 4.1 17.7 0 c9.7 0 22.2 0.3 27.6 0.7 8.9 0.6 9.9 0.5 9.3 -1 -0.4 -1.1 -0.2 -1.4 0.9 -1 3.6 1.3 8.4 -6.3 8.4 -13.4 0 -3.5 0.3 -4.4 1 -3.3 1.7 2.7 1.1 11.2 -1 14.8 -1.1 1.8 -2 3.5 -2 3.7 0 0.3 4.2 0.5 9.3 0.5 5 0 12.4 0.3 16.2 0.7 6.9 0.7 6.9 0.7 3 1.6 -4.8 1 -192.3 1.7 -217.7 0.8z"/>
  <path d="M247.2 265.5 c0.6 -0.6 8.2 -1.5 29.3 -3.5 6.1 -0.6 12.1 -1.3 13.5 -1.7 2.5 -0.6 2.5 -0.6 -0.5 -1.3 -1.6 -0.4 -7.6 -0.8 -13.2 -0.9 -5.7 0 -10.3 -0.5 -10.3 -0.9 0 -0.5 5.7 -1.2 12.7 -1.6 7 -0.3 12.9 -0.9 13.2 -1.1 1.2 -1.3 -1.8 -1.9 -11.4 -2.3 -5.8 -0.3 -10.5 -0.9 -10.5 -1.3 0 -0.5 5 -0.9 11.1 -0.9 8.4 0 11 -0.3 10.7 -1.2 -0.3 -0.9 -4.1 -1.4 -13.1 -1.6 -15.4 -0.3 -17.4 -2.2 -2.4 -2.2 11.9 0 14.3 -0.9 10.1 -3.6 -2.3 -1.6 -5.6 -2 -19.4 -2.5 -19.3 -0.7 -30.4 0.3 -33.9 2.9 -4.1 3 -6.2 6.6 -7 11.8 l-0.8 4.9 -0.7 -3.7 c-0.7 -3.4 -0.5 -5.9 1 -10.9 0.4 -1.3 -0.5 -1.7 -4.3 -2.2 -5.8 -0.6 -7 -0.2 -7.8 3 -0.3 1.4 -0.9 2.3 -1.2 2 -0.3 -0.4 0.6 -3.1 2.1 -6.1 4.7 -9.6 15.3 -17.2 29.6 -21.3 5.4 -1.5 9.9 -1.8 26 -1.7 10.7 0.1 27.6 0.6 37.5 1.2 9.9 0.6 23.6 1.4 30.5 1.7 l12.5 0.6 4.3 -7.5 c2.4 -4.2 4.6 -7.6 4.9 -7.6 4.6 0 21.3 6.8 21.3 8.6 0 0.6 -17.4 -0.4 -20.1 -1.2 -1.1 -0.3 -2.4 0.8 -3.8 3.1 -2.7 4.6 -2.6 5.5 0.3 5.5 1.5 0 2.6 0.7 2.8 1.8 0.3 1.3 0.8 1 2.3 -1.5 2.3 -3.9 5.9 -5.5 11.1 -5.1 3.1 0.2 3.9 0.7 3.9 2.3 0 1.7 -0.6 1.9 -3.7 1.7 -3.6 -0.3 -7.8 1.1 -7.8 2.6 0 1.1 13.4 0.2 14 -0.9 0.3 -0.5 3.7 -1.2 7.5 -1.7 l7 -0.8 -9 -5.9 c-13.8 -9 -20.8 -11.5 -40.5 -14.6 -13.3 -2.1 -36.8 1.2 -50.9 7 -4.1 1.7 -7.6 3.1 -7.8 3.1 -2.2 0 8.3 -5.9 14.2 -8 12.2 -4.3 27.2 -6.5 38 -5.5 15.1 1.4 18.3 1.8 22 3 2.2 0.7 6.7 2 10 3 7.7 2.3 14.4 5.5 19.2 9.2 6.9 5.2 16.4 10.5 17.9 9.9 2.3 -0.9 0.6 -2.6 -2.5 -2.6 -1.6 0 -3.9 -0.9 -5.2 -2 l-2.4 -1.9 14.8 -0.1 c14.5 0 14.7 0 13.5 2 -1.1 1.7 -2.4 2 -8 2 -6.2 0 -6.7 0.2 -6.5 2.1 0.1 1.2 1.4 2.7 3.2 3.6 7.1 3.6 7.5 4.5 7.5 17.5 0 6.5 -0.4 11.8 -0.9 11.8 -0.5 0 -1.6 0.3 -2.5 0.6 -1.3 0.5 -1.6 -0.2 -1.6 -3.7 0 -4.7 -2.5 -10.6 -5.1 -12.3 -4.1 -2.4 -10 5.6 -11.4 15.6 -0.8 5.5 0.8 5.1 -25.5 6.8 -21.7 1.3 -20 1.5 -20 -1.8 0 -5.6 -3.8 -16.6 -6.5 -18.9 -8.3 -7.2 -20.3 3.2 -22.3 19.2 l-0.7 6 -39.4 0.3 c-21.7 0.1 -39.2 0 -38.9 -0.3z m148.8 -11 c0 -1.2 -1.6 -1.5 -7.7 -1.6 l-7.8 -0.2 5.5 -0.7 c3 -0.4 6.5 -0.5 7.6 -0.3 1.2 0.3 2.5 0 2.8 -0.6 0.5 -0.8 -1.9 -1.1 -7.6 -1.2 -7.4 -0.1 -7.8 -0.2 -3.8 -1 2.5 -0.4 6.4 -0.8 8.8 -0.8 7.8 -0.2 4.3 -1.8 -6 -2.8 l-10.3 -1 10.8 -0.1 c6.3 -0.1 10.7 -0.6 10.7 -1.2 0 -0.6 -4.1 -1 -10.2 -1 -5.6 0 -9.8 -0.3 -9.4 -0.7 0.8 -0.8 1.1 -0.9 14.4 -1.1 6.3 -0.2 8.2 -0.5 8.2 -1.6 0 -1.1 -1.3 -1.4 -5.7 -1.1 -3.2 0.1 -14 0.3 -24.1 0.4 l-18.3 0.1 2.1 2.8 c1.2 1.6 2.6 5.6 3.3 9 l1.2 6.2 17.7 0 c15.2 0 17.8 -0.2 17.8 -1.5z m-165 -18 l3.4 -3.5 12 -0.1 c9.4 -0.1 11.1 -0.3 7.6 -1 -2.5 -0.4 -7.2 -0.8 -10.5 -0.9 l-6 -0.1 2.4 -1.9 c1.9 -1.6 4 -2 11.5 -2.2 l9.1 -0.2 -7 -0.6 c-5.2 -0.5 -6.4 -0.9 -4.7 -1.4 1.2 -0.5 2.2 -1.2 2.2 -1.6 0 -1.1 -17.3 3.6 -22 6 -2.3 1.2 -5.9 3.8 -8.2 5.8 l-4.1 3.7 3.9 0.6 c2.1 0.3 4.6 0.7 5.5 0.8 0.8 0 3 -1.5 4.9 -3.4z m88.4 -1 c1.5 -1.9 5.1 -4.9 7.9 -6.5 l5.2 -3 -6.7 0 c-10.9 0 -24.9 5.6 -27.9 11.2 -0.9 1.7 -0.3 1.8 8.9 1.8 l10 0 2.6 -3.5z"/>
  <path d="M327 216.9 c-9.6 -0.3 -21.7 -0.7 -26.9 -0.8 -10.8 -0.1 -11 -1.1 -1.2 -5.5 11.3 -5 21.3 -6.9 36.1 -6.9 7.4 0.1 14.7 0.5 16.2 1 l2.8 0.8 -4 6.3 c-2.2 3.4 -4.3 6.1 -4.7 6 -0.5 -0.1 -8.7 -0.5 -18.3 -0.9z"/>
  <path d="M392.9 210.4 c-0.7 -0.9 -3.7 -3 -6.6 -4.6 -6.6 -3.7 -7 -4.7 -0.5 -1.4 5.3 2.8 11.3 7.5 9.6 7.6 -0.6 0 -1.8 -0.7 -2.5 -1.6z"/>
  <path d="M286.5 205 c0.7 -1.1 5 -3.5 9 -5 4.3 -1.6 2.7 -0.3 -3.5 2.9 -3.4 1.7 -5.8 2.6 -5.5 2.1z"/>
  <path d="M375.5 201 c-1.3 -0.5 -1.4 -0.9 -0.5 -0.9 0.8 0 2.4 0.4 3.5 0.9 1.3 0.5 1.4 0.9 0.5 0.9 -0.8 0 -2.4 -0.4 -3.5 -0.9z"/>
  <path d="M288 119.6 c0 -1.9 5.5 -10.1 8.3 -12.3 3.4 -2.6 11.7 -5.9 18.5 -7.2 6.7 -1.4 17.4 0.1 25.1 3.6 5.3 2.3 9.1 4.9 9.1 6.2 0 0.3 -4.6 0.5 -10.2 0.3 -5.7 -0.2 -10.1 -0.1 -9.8 0.1 0.3 0.3 4.2 1 8.8 1.6 10.6 1.4 17.2 4.1 17.2 7.2 0 1.6 -0.4 1.9 -1.7 1.4 -5.7 -2.3 -11.8 -2.9 -31.8 -2.9 -17.3 0 -23.2 0.3 -27.7 1.6 -4.3 1.2 -5.8 1.3 -5.8 0.4z"/>
  <path d="M317.2 96 c0.7 -1.1 1.6 -2 2 -2 0.5 0 0.8 -0.7 0.8 -1.5 0 -1.3 -2.5 -1.5 -16.6 -1.5 -12.8 0 -16.5 -0.3 -16.2 -1.2 0.4 -1 8.5 -1.4 35.3 -1.6 30.9 -0.2 34.6 -0.1 33.5 1.3 -1 1.2 -4.1 1.5 -16.6 1.5 -8.4 0 -15.5 0.4 -15.8 0.9 -0.3 0.4 0.3 1.6 1.4 2.6 3.1 2.8 2.4 3.5 -3.5 3.5 -5.3 0 -5.5 -0.1 -4.3 -2z"/>
 </g>
 <g fill="#44a1c8">
  <path d="M258 257 c0 -0.5 2.5 -1 5.5 -1 3 0 5.5 0.5 5.5 1 0 0.6 -2.5 1 -5.5 1 -3 0 -5.5 -0.4 -5.5 -1z"/>
  <path d="M377.3 252.3 c1.5 -0.2 3.7 -0.2 5 0 1.2 0.2 0 0.4 -2.8 0.4 -2.7 0 -3.8 -0.2 -2.2 -0.4z"/>
  <path d="M257 251 c0 -0.6 4 -1 10.3 -0.9 6.6 0.1 9.3 0.4 7.7 0.9 -3.7 1.2 -18 1.2 -18 0z"/>
  <path d="M375.5 249 c0.3 -0.5 4 -1 8.1 -1 4.3 0 7.4 0.4 7.4 1 0 0.6 -3.4 1 -8.1 1 -5.1 0 -7.8 -0.4 -7.4 -1z"/>
  <path d="M254.5 246 c-0.4 -0.6 2.2 -1 6.9 -1 4.4 0 7.6 0.4 7.6 1 0 0.6 -3 1 -6.9 1 -3.9 0 -7.3 -0.4 -7.6 -1z"/>
  <path d="M378 245 c0 -0.6 3 -1 7 -1 4 0 7 0.4 7 1 0 0.6 -3 1 -7 1 -4 0 -7 -0.4 -7 -1z"/>
  <path d="M387 241 c-1.1 -0.7 -0.4 -1 2.8 -1 2.3 0 4.2 0.5 4.2 1 0 1.3 -5 1.3 -7 0z"/>
  <path d="M230.6 219.8 c0.4 -0.7 3.5 -5.3 6.8 -10.3 3.4 -4.9 6.3 -9.5 6.6 -10 0.7 -1.3 37.6 -56.5 42.1 -62.8 2.4 -3.4 3.9 -4.7 5.4 -4.5 1.9 0.3 2 0.7 0.8 5.1 -0.9 3 2.5 1.9 4.2 -1.4 1.1 -2 2.1 -2.9 3.1 -2.5 0.9 0.3 2.7 0.6 4.1 0.6 2.6 0 2.6 0 0.6 8.8 -0.4 1.7 -0.1 2.2 1.4 2.2 1.4 0 2.2 -1.3 3.3 -5.2 0.8 -2.9 2.1 -5.3 2.8 -5.2 0.6 0.1 2.7 0.2 4.6 0.3 3.1 0.1 3.5 0.4 3.8 3.3 0.4 4.6 2.8 4.9 2.8 0.4 0 -3.6 0 -3.6 4.4 -3.6 5 0 5.4 0.4 7.1 6.9 0.7 3.1 1.7 4.7 3 4.9 1.6 0.4 1.7 -0.1 1.1 -3.9 -0.4 -2.4 -0.9 -5.4 -1.3 -6.6 -0.4 -1.9 -0.1 -2.3 2 -2.3 1.4 0 3.2 -0.3 4.1 -0.6 1 -0.4 1.9 0.3 2.7 2 0.7 1.4 2 2.6 3.1 2.6 2 0 2.4 -2 0.7 -3.7 -0.8 -0.8 -0.6 -1.4 0.8 -2.1 1 -0.6 2.3 -0.8 2.9 -0.4 0.5 0.4 4.6 6.3 9.2 13.2 4.5 6.9 16.2 24.3 26 38.8 9.7 14.4 17.9 26.7 18 27.2 0.2 0.6 -2.4 1 -6.1 1 -4.7 0 -6.8 -0.4 -7.8 -1.6 -2.3 -2.8 -12 -7.8 -20.3 -10.5 l-7.9 -2.5 -3.3 -9.8 c-4.8 -14.4 -5.8 -14.6 -2.3 -0.6 1.1 4.5 1.8 8.4 1.6 8.7 -0.3 0.2 -4 0 -8.4 -0.6 -4.3 -0.6 -9.4 -1.2 -11.3 -1.3 -3.9 -0.3 -3.5 0.5 -6.5 -14.8 l-1.4 -7.5 0.5 10.8 c0.4 8.3 0.2 10.7 -0.8 10.7 -3.5 0.1 -19.6 2 -21.5 2.6 -2.3 0.6 -2.3 0.5 -2.3 -7.7 0 -4.5 -0.3 -7.9 -0.7 -7.5 -0.5 0.4 -1.2 4.4 -1.8 8.9 l-1 8.1 -3.5 1.1 c-6.1 1.8 -14.5 6.4 -20.9 11.5 -6.3 5.1 -8.1 6 -8.1 3.7 0 -0.7 1.5 -6.6 3.4 -13.1 1.9 -6.5 3 -11.4 2.5 -10.9 -0.4 0.4 -3.1 6 -5.8 12.3 l-4.9 11.5 -8.9 0.7 c-9.9 0.9 -20 2.9 -25.7 5.3 -2.8 1.2 -3.6 1.3 -3 0.3z m116.8 -40.2 c-0.3 -1.5 -0.8 -2.5 -1.1 -2.3 -0.2 0.3 -0.1 1.7 0.3 3.1 0.3 1.5 0.8 2.5 1.1 2.3 0.2 -0.3 0.1 -1.7 -0.3 -3.1z m-70.2 -6.8 c4.3 -8.2 4.1 -7.8 2.9 -7.8 -0.8 0 -7.1 12 -7.1 13.6 0 1.5 1.4 -0.4 4.2 -5.8z m89.6 -2.2 c-1.2 -2.5 -2.6 -4.6 -3 -4.6 -1.3 0 -1 0.8 1.8 5.6 3.4 5.7 4.2 5.1 1.2 -1z m-66.6 -2.4 c2.1 -6.6 2.1 -7.2 0.8 -7.2 -0.5 0 -1.4 1.7 -1.9 3.8 -3.1 11.2 -2.2 13.9 1.1 3.4z m45.3 3.1 c-0.9 -5.1 -2.5 -9.3 -3.7 -9.3 -1 0 -0.6 1.9 1.9 8.8 1.9 5.2 2.6 5.4 1.8 0.5z m-23.8 -11 c-0.2 -1.6 -0.4 -0.5 -0.4 2.2 0 2.8 0.2 4 0.4 2.8 0.2 -1.3 0.2 -3.5 0 -5z m-36.7 -2.3 c3.1 -6.1 3.6 -8 2.2 -8 -0.7 0 -7.2 12.2 -7.2 13.5 0 0.3 0.4 0.5 1 0.5 0.5 0 2.3 -2.7 4 -6z m78 5.4 c0 -2.1 -4.5 -10.4 -5.7 -10.4 -0.8 0 -1.3 0.3 -1.1 0.8 3 6.4 5.2 10.2 5.9 10.2 0.5 0 0.9 -0.3 0.9 -0.6z m-21 -5.1 c0 -2.9 -2 -9.2 -3.1 -9.9 -2 -1.2 -2 0.5 -0.3 6 1.7 5.5 3.4 7.4 3.4 3.9z m-37.4 -4.4 c1.7 -5.6 1.7 -6.9 0 -6.9 -1.3 0 -3.6 6.7 -3.6 10.5 0 3.2 2.3 0.9 3.6 -3.6z m18.4 -5.1 c0 -2.1 -0.4 -3.8 -0.9 -3.8 -1.7 0 -2.2 1.8 -1.5 6 0.8 5 2.4 3.5 2.4 -2.2z m34 1.1 c0 -2 -5.2 -9.9 -6.5 -9.9 -1.2 0 -1.1 0.6 0.1 3.6 0.8 2 2 4.5 2.7 5.5 1.3 2 3.7 2.6 3.7 0.8z m-66.2 -2.2 c1.9 -2.3 2.6 -6.7 1 -6.7 -1.5 0 -5.1 6.4 -4.1 7.4 1 0.9 2 0.7 3.1 -0.7z"/>
  <path d="M285 210.6 c0 -0.3 1.5 -1.5 3.3 -2.7 2.3 -1.7 2.8 -1.8 1.8 -0.6 -1.4 1.8 -5.1 4.2 -5.1 3.3z"/>
  <path d="M229.3 197.6 l-2 -2.1 2.4 -1.9 c2.3 -1.7 2.5 -1.7 4.4 0 2.4 2.2 2.4 2.5 -0.4 4.5 -2.2 1.6 -2.4 1.6 -4.4 -0.5z"/>
  <path d="M411.7 193.9 c-1.7 -1.9 -1.7 -2 0.3 -4.1 l2 -2.2 2.2 2.2 2.2 2.2 -2.2 2 c-2.5 2.3 -2.2 2.4 -4.5 -0.1z"/>
  <path d="M397.1 179.6 l-2.2 -2.3 2.6 -1.7 c2.5 -1.7 2.8 -1.7 4.5 -0.1 1.8 1.6 1.8 1.9 0.2 4.1 -2.1 2.9 -2.4 2.9 -5.1 0z"/>
  <path d="M218 176.9 l-3.6 -3.7 3.9 -3.5 c3.4 -3.1 3.9 -3.3 5 -1.8 0.7 0.9 2.5 2.7 4.1 3.9 1.6 1.2 2.3 2.2 1.6 2.2 -0.7 0 -2.7 1.5 -4.4 3.3 l-3.1 3.2 -3.5 -3.6z"/>
  <path d="M245.9 155.4 l-2.3 -2.4 2.5 -1.8 c1.3 -0.9 2.6 -1.5 2.9 -1.3 4.7 3.3 4.6 2.8 1.7 5.5 l-2.6 2.4 -2.2 -2.4z"/>
  <path d="M405.2 150.2 l-3.4 -3.2 3.2 -3 c3.8 -3.6 4.4 -3.7 6.4 -0.8 0.9 1.2 2.6 2.8 3.8 3.5 1.7 0.9 1.9 1.2 0.7 1.3 -0.9 0 -3 1.2 -4.5 2.8 l-2.9 2.7 -3.3 -3.3z"/>
  <path d="M298.3 129.9 c-6.3 -0.8 -10.3 -2.3 -10.3 -3.9 0 -1.9 9.1 -4 21 -5 14.2 -1.1 32.5 0 40.8 2.5 8.3 2.5 6.5 4.5 -5.5 6.4 -8.1 1.2 -36.6 1.3 -46 0z"/>
 </g>
</svg>