<svg xmlns="http://www.w3.org/2000/svg" viewBox="0 0 800 450" width="800" height="450">
  <defs>
    <pattern id="grid" width="56" height="56" patternUnits="userSpaceOnUse">
      <path d="M 56 0 L 0 0 0 56" fill="none" stroke="rgba(255,255,255,0.09)" stroke-width="0.6"/>
    </pattern>
    <radialGradient id="glow" cx="0" cy="0" r="320" gradientUnits="userSpaceOnUse">
      <stop offset="0%" stop-color="#1E4FBF" stop-opacity="0.22"/>
      <stop offset="100%" stop-color="#1E4FBF" stop-opacity="0"/>
    </radialGradient>
  </defs>

  <rect width="800" height="450" fill="#0a0a0a"/>
  <rect width="800" height="450" fill="url(#grid)"/>
  <rect width="800" height="450" fill="url(#glow)"/>

  <g fill="none" stroke="rgba(255,255,255,0.55)" stroke-width="1">
    <circle cx="615" cy="225" r="45"/>
    <circle cx="615" cy="225" r="90"/>
    <circle cx="615" cy="225" r="135"/>
    <circle cx="615" cy="225" r="180"/>
  </g>
  <circle cx="615" cy="225" r="5.5" fill="#5BAAFF"/>

  <text x="44" y="56" font-family="'Courier New', Courier, monospace" font-size="10.5" letter-spacing="2.5" fill="rgba(255,255,255,0.42)">SYSTEMS / IOT</text>

  <text x="44" y="185" font-family="Georgia, 'Times New Roman', serif" font-size="80" font-weight="400" fill="white">MuHome</text>
  <text x="44" y="268" font-family="Georgia, 'Times New Roman', serif" font-size="80" font-weight="400" fill="#5BAAFF">Dashboard</text>

  <text x="44" y="305" font-family="'Courier New', Courier, monospace" font-size="9" letter-spacing="1.8" fill="rgba(255,255,255,0.38)">HUE</text>
  <line x1="80" y1="300" x2="380" y2="300" stroke="rgba(255,255,255,0.1)" stroke-width="0.7" stroke-dasharray="3 3"/>
  <circle cx="393" cy="300" r="3.5" fill="#4CAF6E"/>
  <text x="404" y="305" font-family="'Courier New', Courier, monospace" font-size="9" letter-spacing="1.8" fill="rgba(255,255,255,0.55)">ONLINE</text>

  <text x="44" y="327" font-family="'Courier New', Courier, monospace" font-size="9" letter-spacing="1.8" fill="rgba(255,255,255,0.38)">GOVEE</text>
  <line x1="90" y1="322" x2="380" y2="322" stroke="rgba(255,255,255,0.1)" stroke-width="0.7" stroke-dasharray="3 3"/>
  <circle cx="393" cy="322" r="3.5" fill="#4CAF6E"/>
  <text x="404" y="327" font-family="'Courier New', Courier, monospace" font-size="9" letter-spacing="1.8" fill="rgba(255,255,255,0.55)">ONLINE</text>

  <text x="44" y="349" font-family="'Courier New', Courier, monospace" font-size="9" letter-spacing="1.8" fill="rgba(255,255,255,0.38)">HOME ASSISTANT</text>
  <line x1="168" y1="344" x2="380" y2="344" stroke="rgba(255,255,255,0.1)" stroke-width="0.7" stroke-dasharray="3 3"/>
  <circle cx="393" cy="344" r="3.5" fill="#E8A83A"/>
  <text x="404" y="349" font-family="'Courier New', Courier, monospace" font-size="9" letter-spacing="1.8" fill="rgba(255,255,255,0.55)">SYNCING</text>

  <rect x="44" y="392" width="62" height="22" rx="11" fill="none" stroke="rgba(255,255,255,0.28)" stroke-width="1"/>
  <text x="75" y="407" text-anchor="middle" font-family="'Courier New', Courier, monospace" font-size="9" letter-spacing="1.5" fill="rgba(255,255,255,0.62)">TAURI</text>

  <rect x="116" y="392" width="62" height="22" rx="11" fill="none" stroke="rgba(255,255,255,0.28)" stroke-width="1"/>
  <text x="147" y="407" text-anchor="middle" font-family="'Courier New', Courier, monospace" font-size="9" letter-spacing="1.5" fill="rgba(255,255,255,0.62)">REACT</text>

  <rect x="188" y="392" width="102" height="22" rx="11" fill="none" stroke="rgba(255,255,255,0.28)" stroke-width="1"/>
  <text x="239" y="407" text-anchor="middle" font-family="'Courier New', Courier, monospace" font-size="9" letter-spacing="1.5" fill="rgba(255,255,255,0.62)">TYPESCRIPT</text>

  <rect x="300" y="392" width="136" height="22" rx="11" fill="none" stroke="rgba(255,255,255,0.28)" stroke-width="1"/>
  <text x="368" y="407" text-anchor="middle" font-family="'Courier New', Courier, monospace" font-size="9" letter-spacing="1.5" fill="rgba(255,255,255,0.62)">HOME ASSISTANT</text>
</svg>