<svg width="1200" height="630" viewBox="0 0 1200 630" fill="none" xmlns="http://www.w3.org/2000/svg">
  <!-- Background -->
  <rect width="1200" height="630" fill="#0a0a0b"/>

  <!-- Radial gradient accent top center -->
  <radialGradient id="heroGlow" cx="50%" cy="0%" r="50%">
    <stop offset="0%" stop-color="#F97316" stop-opacity="0.14"/>
    <stop offset="100%" stop-color="#F97316" stop-opacity="0"/>
  </radialGradient>
  <rect width="1200" height="400" fill="url(#heroGlow)"/>

  <!-- Nav bar -->
  <rect width="1200" height="60" fill="#0a0a0b"/>
  <rect width="1200" height="1" y="60" fill="#ffffff" fill-opacity="0.08"/>
  <!-- Logo / name -->
  <rect x="40" y="22" width="28" height="17" rx="5" fill="#F97316" fill-opacity="0.85"/>
  <rect x="44" y="26" width="20" height="9" rx="2" fill="#ffffff" fill-opacity="0.9"/>
  <!-- Nav links right -->
  <rect x="820" y="25" width="60" height="11" rx="5" fill="#ffffff" fill-opacity="0.3"/>
  <rect x="896" y="25" width="68" height="11" rx="5" fill="#ffffff" fill-opacity="0.3"/>
  <rect x="980" y="25" width="54" height="11" rx="5" fill="#ffffff" fill-opacity="0.3"/>
  <rect x="1050" y="20" width="108" height="22" rx="11" fill="#F97316" fill-opacity="0.18"/>
  <rect x="1050" y="20" width="108" height="22" rx="11" stroke="#F97316" stroke-opacity="0.45" stroke-width="1"/>
  <rect x="1068" y="25" width="72" height="11" rx="5" fill="#F97316" fill-opacity="0.8"/>

  <!-- Hero section -->
  <!-- Eyebrow tag -->
  <rect x="40" y="100" width="130" height="26" rx="13" fill="#ffffff" fill-opacity="0.06"/>
  <rect x="40" y="100" width="130" height="26" rx="13" stroke="#ffffff" stroke-opacity="0.1" stroke-width="1"/>
  <circle cx="61" cy="113" r="4" fill="#10B981" fill-opacity="0.8"/>
  <rect x="72" y="108" width="84" height="10" rx="5" fill="#ffffff" fill-opacity="0.5"/>

  <!-- Main headline -->
  <rect x="40" y="146" width="560" height="40" rx="8" fill="#ffffff" fill-opacity="0.9"/>
  <rect x="40" y="198" width="420" height="40" rx="8" fill="#ffffff" fill-opacity="0.9"/>
  <!-- Subhead -->
  <rect x="40" y="258" width="480" height="14" rx="7" fill="#ffffff" fill-opacity="0.38"/>
  <rect x="40" y="280" width="400" height="14" rx="7" fill="#ffffff" fill-opacity="0.28"/>
  <rect x="40" y="302" width="320" height="14" rx="7" fill="#ffffff" fill-opacity="0.2"/>

  <!-- CTA buttons -->
  <rect x="40" y="336" width="160" height="44" rx="22" fill="#F97316"/>
  <rect x="72" y="351" width="96" height="14" rx="7" fill="#ffffff" fill-opacity="0.9"/>
  <rect x="216" y="336" width="160" height="44" rx="22" fill="#ffffff" fill-opacity="0.06"/>
  <rect x="216" y="336" width="160" height="44" rx="22" stroke="#ffffff" stroke-opacity="0.15" stroke-width="1"/>
  <rect x="248" y="351" width="96" height="14" rx="7" fill="#ffffff" fill-opacity="0.5"/>

  <!-- Highlight cards (3 col grid right side) -->
  <rect x="680" y="88" width="220" height="160" rx="18" fill="#141416"/>
  <rect x="680" y="88" width="220" height="160" rx="18" stroke="#ffffff" stroke-opacity="0.07" stroke-width="1"/>
  <rect x="704" y="116" width="80" height="22" rx="6" fill="#F97316" fill-opacity="0.15"/>
  <rect x="704" y="116" width="80" height="22" rx="6" stroke="#F97316" stroke-opacity="0.3" stroke-width="1"/>
  <rect x="714" y="122" width="60" height="10" rx="5" fill="#F97316" fill-opacity="0.7"/>
  <rect x="704" y="154" width="172" height="13" rx="6" fill="#ffffff" fill-opacity="0.75"/>
  <rect x="704" y="176" width="140" height="10" rx="5" fill="#ffffff" fill-opacity="0.3"/>
  <rect x="704" y="192" width="120" height="10" rx="5" fill="#ffffff" fill-opacity="0.22"/>
  <rect x="704" y="218" width="100" height="10" rx="5" fill="#ffffff" fill-opacity="0.15"/>

  <rect x="920" y="88" width="240" height="160" rx="18" fill="#141416"/>
  <rect x="920" y="88" width="240" height="160" rx="18" stroke="#ffffff" stroke-opacity="0.07" stroke-width="1"/>
  <rect x="944" y="116" width="80" height="22" rx="6" fill="#3B82F6" fill-opacity="0.12"/>
  <rect x="944" y="116" width="80" height="22" rx="6" stroke="#3B82F6" stroke-opacity="0.25" stroke-width="1"/>
  <rect x="954" y="122" width="60" height="10" rx="5" fill="#3B82F6" fill-opacity="0.7"/>
  <rect x="944" y="154" width="172" height="13" rx="6" fill="#ffffff" fill-opacity="0.75"/>
  <rect x="944" y="176" width="140" height="10" rx="5" fill="#ffffff" fill-opacity="0.3"/>
  <rect x="944" y="192" width="120" height="10" rx="5" fill="#ffffff" fill-opacity="0.22"/>
  <rect x="944" y="218" width="100" height="10" rx="5" fill="#ffffff" fill-opacity="0.15"/>

  <!-- Divider -->
  <rect x="0" y="398" width="1200" height="1" fill="#ffffff" fill-opacity="0.07"/>

  <!-- Featured work section -->
  <rect x="40" y="424" width="180" height="13" rx="6" fill="#ffffff" fill-opacity="0.8"/>
  <rect x="40" y="448" width="120" height="10" rx="5" fill="#F97316" fill-opacity="0.5"/>

  <!-- Project cards -->
  <rect x="40" y="474" width="540" height="130" rx="14" fill="#141416"/>
  <rect x="40" y="474" width="540" height="130" rx="14" stroke="#ffffff" stroke-opacity="0.07" stroke-width="1"/>
  <!-- Card image strip -->
  <rect x="40" y="474" width="540" height="52" rx="14" fill="#1e1e20"/>
  <rect x="40" y="510" width="540" height="16" fill="#1e1e20"/>
  <rect x="60" y="484" width="120" height="8" rx="4" fill="#F97316" fill-opacity="0.3"/>
  <rect x="60" y="498" width="80" height="6" rx="3" fill="#ffffff" fill-opacity="0.2"/>
  <!-- Card content -->
  <rect x="60" y="542" width="200" height="13" rx="6" fill="#ffffff" fill-opacity="0.75"/>
  <rect x="60" y="564" width="280" height="10" rx="5" fill="#ffffff" fill-opacity="0.3"/>
  <rect x="468" y="542" width="80" height="22" rx="11" fill="#ffffff" fill-opacity="0.05"/>
  <rect x="468" y="542" width="80" height="22" rx="11" stroke="#ffffff" stroke-opacity="0.12" stroke-width="1"/>
  <rect x="480" y="548" width="56" height="10" rx="5" fill="#ffffff" fill-opacity="0.4"/>

  <rect x="620" y="474" width="540" height="130" rx="14" fill="#141416"/>
  <rect x="620" y="474" width="540" height="130" rx="14" stroke="#ffffff" stroke-opacity="0.07" stroke-width="1"/>
  <rect x="620" y="474" width="540" height="52" rx="14" fill="#1e1e20"/>
  <rect x="620" y="510" width="540" height="16" fill="#1e1e20"/>
  <rect x="640" y="484" width="120" height="8" rx="4" fill="#3B82F6" fill-opacity="0.3"/>
  <rect x="640" y="498" width="80" height="6" rx="3" fill="#ffffff" fill-opacity="0.2"/>
  <rect x="640" y="542" width="200" height="13" rx="6" fill="#ffffff" fill-opacity="0.75"/>
  <rect x="640" y="564" width="280" height="10" rx="5" fill="#ffffff" fill-opacity="0.3"/>
  <rect x="1048" y="542" width="80" height="22" rx="11" fill="#ffffff" fill-opacity="0.05"/>
  <rect x="1048" y="542" width="80" height="22" rx="11" stroke="#ffffff" stroke-opacity="0.12" stroke-width="1"/>
  <rect x="1060" y="548" width="56" height="10" rx="5" fill="#ffffff" fill-opacity="0.4"/>
</svg>
